<svg width="25" height="25" viewBox="0 0 25 25" fill="none" xmlns="http://www.w3.org/2000/svg">
<path d="M19.7869 3.53918H5.78693C5.25649 3.53918 4.74779 3.74989 4.37271 4.12496C3.99764 4.50004 3.78693 5.00874 3.78693 5.53918V19.5392C3.78693 20.0696 3.99764 20.5783 4.37271 20.9534C4.74779 21.3285 5.25649 21.5392 5.78693 21.5392H19.7869C20.3174 21.5392 20.8261 21.3285 21.2011 20.9534C21.5762 20.5783 21.7869 20.0696 21.7869 19.5392V5.53918C21.7869 5.00874 21.5762 4.50004 21.2011 4.12496C20.8261 3.74989 20.3174 3.53918 19.7869 3.53918ZM19.7869 19.5392H5.78693V5.53918H19.7869V19.5392ZM17.7869 8.93918L14.1869 12.5392L17.7869 16.1392L16.3869 17.5392L12.7869 13.9392L9.18693 17.5392L7.78693 16.1392L11.3869 12.5392L7.78693 8.93918L9.18693 7.53918L12.7869 11.1392L16.3869 7.53918L17.7869 8.93918Z" fill="rgb(255, 253, 237)"/>
</svg>
