<svg width="24" height="24" viewBox="0 0 24 24" fill="none" xmlns="http://www.w3.org/2000/svg">
<path d="M14.75 7.46L12 3.93L13.97 3.54L16.71 7.07L14.75 7.46ZM21.62 6.1L20.84 2.18L16.91 2.96L19.65 6.5L21.62 6.1ZM4.00002 12H18.13L20.13 10H2.00002V20C2.00002 21.11 2.90002 22 4.00002 22H11V20H4.00002V12ZM11.81 8.05L9.07002 4.5L7.10002 4.91L9.85002 8.44L11.81 8.05ZM4.16002 5.5L3.18002 5.69C2.10002 5.9 1.39002 6.96 1.61002 8.04L2.00002 10L6.90002 9.03L4.16002 5.5ZM13 19.96V22H15.04L21.17 15.88L19.13 13.83L13 19.96ZM22.85 13.47L21.53 12.15C21.33 11.95 21 11.95 20.81 12.15L19.83 13.13L21.87 15.17L22.85 14.19C23.05 14 23.05 13.67 22.85 13.47Z" fill="rgb(255, 253, 237)"/>
</svg>
